<?xml version="1.0" encoding="UTF-8"?>
<!DOCTYPE svg PUBLIC "-//W3C//DTD SVG 1.1//EN" "http://www.w3.org/Graphics/SVG/1.1/DTD/svg11.dtd">
<!-- Creator: CorelDRAW -->
<svg xmlns="http://www.w3.org/2000/svg" xml:space="preserve" width="14.183mm" height="14.183mm" version="1.1" style="shape-rendering:geometricPrecision; text-rendering:geometricPrecision; image-rendering:optimizeQuality; fill-rule:evenodd; clip-rule:evenodd"
viewBox="0 0 212.64 212.64"
 xmlns:xlink="http://www.w3.org/1999/xlink"
 xmlns:xodm="http://www.corel.com/coreldraw/odm/2003">
 <defs>
  <style type="text/css">
   <![CDATA[
    .fil0 {fill:#00644B}
   ]]>
  </style>
 </defs>
 <g id="Capa_x0020_1">
  <metadata id="CorelCorpID_0Corel-Layer"/>
  <path class="fil0" d="M106.32 0c58.72,0 106.32,47.6 106.32,106.32 0,58.72 -47.6,106.32 -106.32,106.32 -58.72,0 -106.32,-47.6 -106.32,-106.32 0,-58.72 47.6,-106.32 106.32,-106.32zm61.93 83.13l4.78 4.78 2.66 -2.66 0.31 -2.11 -7.75 0zm-41.89 92.68c7.05,0 12.77,5.72 12.77,12.77 0,7.05 -5.72,12.77 -12.77,12.77 -7.05,0 -12.77,-5.72 -12.77,-12.77 0,-7.05 5.72,-12.77 12.77,-12.77zm0 8.13c2.56,0 4.63,2.07 4.63,4.63 0,2.56 -2.07,4.63 -4.63,4.63 -2.56,0 -4.63,-2.07 -4.63,-4.63 0,-2.56 2.07,-4.63 4.63,-4.63zm-40.09 -8.13c7.05,0 12.77,5.72 12.77,12.77 0,7.05 -5.72,12.77 -12.77,12.77 -7.05,0 -12.77,-5.72 -12.77,-12.77 0,-7.05 5.72,-12.77 12.77,-12.77zm0 8.13c2.56,0 4.63,2.07 4.63,4.63 0,2.56 -2.07,4.63 -4.63,4.63 -2.56,0 -4.63,-2.07 -4.63,-4.63 0,-2.56 2.07,-4.63 4.63,-4.63zm73.32 -98.39l-7.89 7.89 4.31 4.31 7.16 0 4.31 -4.31 -7.89 -7.89zm-13.43 2.35l4.78 -4.78 -9.55 0 4.78 4.78zm-13.43 -2.35l-7.89 7.89 4.31 4.31 7.16 0 4.31 -4.31 -7.89 -7.89zm-13.43 2.35l4.78 -4.78 -9.55 0 4.78 4.78zm-13.43 -2.35l-7.89 7.89 4.31 4.31 7.16 0 4.31 -4.31 -7.89 -7.89zm-13.43 2.35l4.78 -4.78 -9.55 0 4.78 4.78zm-13.43 -2.35l-7.89 7.89 4.31 4.31 7.16 0 4.31 -4.31 -7.89 -7.89zm-13.43 2.35l4.78 -4.78 -9.55 0 4.78 4.78zm-21.32 5.54l4.31 4.31 7.16 0 4.31 -4.31 -7.89 -7.89 -7.89 7.89zm-7.16 -7.17l1.62 1.62 4.78 -4.78 -6.86 0 0.46 3.15zm68.78 41.92l7.89 -7.89 -7.89 -7.89 -7.89 7.89 7.89 7.89zm34.75 -7.89l-7.89 -7.89 -7.89 7.89 7.89 7.89 7.89 -7.89zm-69.5 0l7.89 7.89 7.89 -7.89 -7.89 -7.89 -7.89 7.89zm-11.08 0l-7.89 -7.89 -3.66 3.66 1.22 9.33c0.02,0.13 0.03,0.27 0.05,0.4l2.39 2.39 7.89 -7.89zm-2.35 13.43l7.89 7.89 7.89 -7.89 -7.89 -7.89 -7.89 7.89zm14.87 24.91c-1.83,-1.79 -4.8,-4.67 -6.63,-6.46 -0.31,0.37 -0.63,0.75 -0.94,1.12 1.47,1.68 4.77,4.22 7.57,5.34zm38.85 -24.91l7.89 7.89 7.89 -7.89 -7.89 -7.89 -7.89 7.89zm-13.43 13.43l7.89 7.89 7.89 -7.89 -7.89 -7.89 -7.89 7.89zm-13.43 -13.43l7.89 7.89 7.89 -7.89 -7.89 -7.89 -7.89 7.89zm2.35 13.43l-7.89 -7.89 -7.89 7.89 7.89 7.89 7.89 -7.89zm59.27 -5.54l7.89 -7.89 -7.89 -7.89 -7.89 7.89 7.89 7.89zm-13.43 13.43l7.89 -7.89 -7.89 -7.89 -7.89 7.89 7.89 7.89zm-48.22 5.58l1.23 1.32c0.53,0.03 1.05,0.04 1.59,0.04l11.6 0 1.4 -1.4 -7.89 -7.89 -7.93 7.93zm42.68 -0.04l-7.89 -7.89 -7.89 7.89 1.4 1.4c4.33,0.01 8.66,0.13 12.98,0l1.4 -1.4zm13.86 -2.79c2.16,-1.17 4.2,-2.56 6.1,-4.11l-0.99 -0.99 -5.11 5.11zm18.54 -29.62l3.41 -3.42 1.03 -7.92 -4.45 -4.45 -7.89 7.89 7.89 7.89zm-2.01 13.09l-5.88 5.88 1.04 1.04c1.83,-2.15 3.45,-4.47 4.84,-6.92zm-71.93 -35.52l-1.1 1.1 7.89 7.89 7.89 -7.89 -1.1 -1.1 -13.57 0zm-26.86 0l-1.1 1.1 7.89 7.89 7.89 -7.89 -1.1 -1.1 -13.57 0zm68.4 1.1l-1.1 -1.1 -13.57 0 -1.1 1.1 7.89 7.89 7.89 -7.89zm12.19 -1.1l-1.1 1.1 7.89 7.89 7.89 -7.89 -1.1 -1.1 -13.57 0zm-85.27 34.73c1.04,2.45 4,6.21 5.37,7.22 0.3,-0.36 0.61,-0.73 0.91,-1.09 -1.64,-1.56 -4.64,-4.58 -6.28,-6.14zm31.13 -65.65c14.05,0.02 28.09,0.05 42.14,0.09 -3.27,-53.44 -39.48,-54.91 -42.14,-0.09zm-46.17 30.91l-3.78 0c-2.07,0 -3.79,-1.57 -3.99,-3.62l-3.26 -22.46c-0.32,-2.19 1.21,-4.22 3.4,-4.53 0.7,-0.1 1.34,-0.12 2.05,-0.14 12.57,-0.36 25.32,-0.17 37.91,-0.17 4.1,-74.74 66.68,-73.4 69.84,0.15 13.12,0.04 26.25,0.12 39.38,0.12 2.21,0 4.01,1.79 4.01,4.01 0,6.92 -2.25,15.73 -3.25,22.66 -0.35,2.44 -1.36,4 -4.05,4l-3.78 0 -2.7 20.67c-1.52,11.63 -7.11,22.58 -15.54,30.72 -8.07,7.78 -18.7,12.87 -30.02,12.87l-37.97 0c-24.44,0.88 -43.45,-20.28 -45.56,-43.58l-2.7 -20.67z"/>
 </g>
</svg>
